<?xml version="1.0" encoding="utf-8"?>
<!-- Generator: Adobe Illustrator 25.4.1, SVG Export Plug-In . SVG Version: 6.00 Build 0)  -->
<svg version="1.2" baseProfile="tiny" id="Layer_1" xmlns="http://www.w3.org/2000/svg" xmlns:xlink="http://www.w3.org/1999/xlink"
	 x="0px" y="0px" viewBox="0 0 141 42" overflow="visible" xml:space="preserve">
<g>
	<path fill="#0D0D0D" d="M0.2,41.53c0.3-2.18,0.4-4.42,0.4-7.35V7.33c0-2.68-0.1-4.91-0.4-7.25c2.33,0.1,4.12,0.15,7.3,0.15h10.87
		c9.83,0,15.24,4.72,15.24,13.35c0,8.84-5.66,14.1-15.29,14.1h-7.84v6.35c0,2.93,0.15,5.36,0.4,7.5H0.2z M17.87,19.24
		c3.47,0,5.51-1.94,5.51-5.36s-1.94-5.21-5.51-5.21h-7.4v10.57H17.87z"/>
</g>
</svg>
