<?xml version="1.0" encoding="utf-8"?>
<!-- Generator: Adobe Illustrator 25.4.1, SVG Export Plug-In . SVG Version: 6.00 Build 0)  -->
<svg version="1.1" id="Layer_1" xmlns="http://www.w3.org/2000/svg" xmlns:xlink="http://www.w3.org/1999/xlink" x="0px" y="0px"
	 width="82.12px" height="88.36px" viewBox="0 0 82.12 88.36" enable-background="new 0 0 82.12 88.36" xml:space="preserve">
<path d="M36.48,0c4.38,0,8.48,1.26,12.31,3.79c3.83,2.53,6.92,5.93,9.28,10.23c2.35,4.29,3.53,9.09,3.53,14.39
	c0,5.22-1.18,9.98-3.53,14.26c-2.35,4.29-5.44,7.73-9.28,10.29c-3.83,2.57-7.93,3.85-12.31,3.85H13.25l1.26-2.27v26.13
	c0,2.19-0.68,4.02-2.02,5.49s-3.11,2.21-5.3,2.21c-2.11,0-3.83-0.73-5.18-2.21S0,82.85,0,80.67V7.7c0-2.19,0.73-4.02,2.21-5.49
	C3.68,0.73,5.51,0,7.69,0H36.48z M36.48,42.41c1.59,0,3.15-0.67,4.66-2.02c1.52-1.35,2.78-3.09,3.79-5.24s1.52-4.4,1.52-6.75
	c0-2.44-0.51-4.71-1.52-6.82c-1.01-2.1-2.27-3.81-3.79-5.11c-1.51-1.3-3.07-1.96-4.66-1.96H13l1.52-2.27v32.19l-1.39-2.02H36.48z"/>
<circle fill="#00D0FF" cx="74.12" cy="79.32" r="8.01"/>
</svg>
